<?xml version="1.0" encoding="UTF-8" standalone="no"?>
<!-- Created with Inkscape (http://www.inkscape.org/) -->

<svg
   width="62.934254mm"
   height="26.01918mm"
   viewBox="0 0 62.934254 26.01918"
   version="1.1"
   id="svg1"
   xml:space="preserve"
   xmlns="http://www.w3.org/2000/svg"
   xmlns:svg="http://www.w3.org/2000/svg"><defs
     id="defs1" /><style>
    /* Default: Black (for light theme) */
    .logo-path { fill: #000000; fill-opacity: 1; }
    .logo-text { fill: #000000; }
    
    /* Dark theme: White */
    @media (prefers-color-scheme: dark) {
      .logo-path { fill: #ffffff; fill-opacity: 1; }
      .logo-text { fill: #ffffff; }
    }
  </style><g
     id="layer1"
     transform="translate(-53.946303,-135.53538)"><g
       style="fill-rule:evenodd;stroke-miterlimit:10;shape-rendering:geometricPrecision"
       id="g1"
       transform="matrix(0.36012801,0,0,0.36012801,51.371391,125.45181)"><path
         class="logo-path"
         d="m 120.85,29.21 c 0,0.41 -0.13,0.78 -0.38,1.12 -0.26,0.33 -0.53,0.5 -0.84,0.5 -2.49,0.24 -4.54,1.04 -6.12,2.41 -1.59,1.36 -3.22,3.97 -4.91,7.81 L 82.8,99.19 C 82.63,99.73 82.16,100 81.38,100 80.77,100 80.3,99.73 79.96,99.19 L 65.49,68.93 48.85,99.19 C 48.51,99.73 48.04,100 47.43,100 46.69,100 46.2,99.73 45.96,99.19 L 20.61,41.05 C 19.03,37.44 17.36,34.92 15.6,33.49 13.85,32.06 11.4,31.17 8.27,30.83 8,30.83 7.74,30.69 7.51,30.4 7.27,30.12 7.15,29.79 7.15,29.42 7.15,28.47 7.42,28 7.96,28 c 2.26,0 4.62,0.1 7.09,0.3 2.29,0.21 4.45,0.31 6.47,0.31 2.06,0 4.49,-0.1 7.29,-0.31 2.93,-0.2 5.53,-0.3 7.79,-0.3 0.54,0 0.81,0.47 0.81,1.42 0,0.94 -0.17,1.41 -0.5,1.41 -2.26,0.17 -4.04,0.75 -5.34,1.72 -1.3,0.98 -1.95,2.26 -1.95,3.85 0,0.81 0.27,1.82 0.81,3.03 L 51.38,86.74 63.27,64.28 52.19,41.05 C 50.2,36.91 48.56,34.23 47.28,33.03 46,31.84 44.06,31.1 41.46,30.83 c -0.24,0 -0.46,-0.14 -0.68,-0.43 -0.22,-0.28 -0.33,-0.61 -0.33,-0.98 0,-0.95 0.23,-1.42 0.71,-1.42 2.26,0 4.33,0.1 6.22,0.3 1.82,0.21 3.76,0.31 5.82,0.31 2.02,0 4.16,-0.1 6.42,-0.31 2.33,-0.2 4.62,-0.3 6.88,-0.3 0.54,0 0.81,0.47 0.81,1.42 0,0.94 -0.16,1.41 -0.5,1.41 -4.52,0.31 -6.78,1.59 -6.78,3.85 0,1.01 0.52,2.58 1.57,4.7 l 7.33,14.88 7.29,-13.61 c 1.01,-1.92 1.52,-3.54 1.52,-4.86 0,-3.1 -2.26,-4.75 -6.78,-4.96 -0.41,0 -0.61,-0.47 -0.61,-1.41 0,-0.34 0.1,-0.66 0.3,-0.96 0.21,-0.31 0.41,-0.46 0.61,-0.46 1.62,0 3.61,0.1 5.97,0.3 2.26,0.21 4.12,0.31 5.57,0.31 1.04,0 2.58,-0.09 4.6,-0.26 2.56,-0.23 4.71,-0.35 6.43,-0.35 0.4,0 0.6,0.4 0.6,1.21 0,1.08 -0.37,1.62 -1.11,1.62 -2.63,0.27 -4.75,1 -6.35,2.18 -1.6,1.18 -3.6,3.86 -5.99,8.04 l -9.72,17.97 13.16,26.81 19.43,-45.18 c 0.67,-1.65 1.01,-3.17 1.01,-4.55 0,-3.31 -2.26,-5.06 -6.78,-5.27 -0.41,0 -0.61,-0.47 -0.61,-1.41 0,-0.95 0.3,-1.42 0.91,-1.42 1.65,0 3.61,0.1 5.87,0.3 2.09,0.21 3.85,0.31 5.26,0.31 1.49,0 3.21,-0.1 5.16,-0.31 2.03,-0.2 3.85,-0.3 5.47,-0.3 0.47,0 0.71,0.4 0.71,1.21 z"
         id="path1-4" /></g><path
       class="logo-text"
       style="font-size:39.7963px;font-family:'Linux Libertine Display';-inkscape-font-specification:'Linux Libertine Display, Normal';fill-rule:evenodd;stroke-width:0.829612"
       d="m 103.7836,155.86105 v -14.74873 q -3.03136,0.19432 -4.993971,1.82659 -1.962611,1.63227 -1.962611,5.24658 0,3.53659 1.923747,5.4409 1.923745,1.88489 5.032835,2.23466 z m 3.14795,0 q 1.82659,-0.15546 3.14795,-0.71898 1.34079,-0.58295 2.04033,-1.30193 0.69955,-0.71897 1.10762,-1.74886 0.4275,-1.02988 0.52465,-1.82659 0.0972,-0.7967 0.0972,-1.80715 0,-6.60681 -6.91771,-7.30635 z m -3.14795,0.91329 q -2.66216,-0.19431 -4.644199,-0.93272 -1.962611,-0.73841 -2.953632,-1.63227 -0.991021,-0.89386 -1.554543,-2.09864 -0.563521,-1.2242 -0.680112,-1.98204 -0.116591,-0.77727 -0.116591,-1.67113 0,-1.2825 0.505227,-2.54557 0.524658,-1.26306 1.593406,-2.48726 1.08818,-1.24364 3.109086,-2.11807 2.040338,-0.87443 4.741358,-1.12704 v -1.90432 q 0,-0.83556 -0.4275,-1.10761 -0.40807,-0.29148 -1.74886,-0.56352 l -1.04932,-0.19432 q -0.31091,-0.0389 -0.31091,-0.31091 v -0.52466 l 0.0777,-0.0389 q 3.38113,0.15545 4.97454,0.15545 l 5.05226,-0.15545 0.0777,0.0389 v 0.52466 q 0,0.27205 -0.27205,0.31091 l -1.06874,0.19432 q -1.36023,0.23318 -1.7683,0.54409 -0.38863,0.29148 -0.38863,1.12704 v 1.86545 q 4.62476,0.31091 7.28692,2.54557 2.66215,2.23465 2.66215,5.49919 0,3.18682 -2.70102,5.69352 -2.68158,2.5067 -7.24805,2.89533 v 2.00148 q 0,0.83556 0.38863,1.14647 0.40807,0.29148 1.7683,0.52466 l 1.06874,0.19432 q 0.31091,0.0389 0.31091,0.33034 v 0.50523 l -0.0777,0.0777 q -3.42,-0.19432 -4.97454,-0.19432 l -5.09113,0.19432 -0.0777,-0.0777 v -0.50523 q 0,-0.27205 0.31091,-0.33034 l 1.04932,-0.19432 q 1.2825,-0.23318 1.72943,-0.54409 0.44693,-0.33034 0.44693,-1.12704 z"
       id="text1"
       aria-label="Φ" /></g></svg>
