<?xml version="1.0" encoding="UTF-8" standalone="no"?>
<!-- Created with Inkscape (http://www.inkscape.org/) -->

<svg
   width="62.934315mm"
   height="26.019165mm"
   viewBox="0 0 62.934315 26.019165"
   version="1.1"
   id="svg1"
   xml:space="preserve"
   xmlns="http://www.w3.org/2000/svg"
   xmlns:svg="http://www.w3.org/2000/svg"><defs
     id="defs1" /><g
     id="layer1"
     transform="translate(-53.946306,-135.5354)"><g
       style="fill-rule:evenodd;stroke-miterlimit:10;shape-rendering:geometricPrecision"
       id="g1"
       transform="matrix(0.36012801,0,0,0.36012801,51.371391,125.45181)"><path
         d="m 120.85,29.21 c 0,0.41 -0.13,0.78 -0.38,1.12 -0.26,0.33 -0.53,0.5 -0.84,0.5 -2.49,0.24 -4.54,1.04 -6.12,2.41 -1.59,1.36 -3.22,3.97 -4.91,7.81 L 82.8,99.19 C 82.63,99.73 82.16,100 81.38,100 80.77,100 80.3,99.73 79.96,99.19 L 65.49,68.93 48.85,99.19 C 48.51,99.73 48.04,100 47.43,100 46.69,100 46.2,99.73 45.96,99.19 L 20.61,41.05 C 19.03,37.44 17.36,34.92 15.6,33.49 13.85,32.06 11.4,31.17 8.27,30.83 8,30.83 7.74,30.69 7.51,30.4 7.27,30.12 7.15,29.79 7.15,29.42 7.15,28.47 7.42,28 7.96,28 c 2.26,0 4.62,0.1 7.09,0.3 2.29,0.21 4.45,0.31 6.47,0.31 2.06,0 4.49,-0.1 7.29,-0.31 2.93,-0.2 5.53,-0.3 7.79,-0.3 0.54,0 0.81,0.47 0.81,1.42 0,0.94 -0.17,1.41 -0.5,1.41 -2.26,0.17 -4.04,0.75 -5.34,1.72 -1.3,0.98 -1.95,2.26 -1.95,3.85 0,0.81 0.27,1.82 0.81,3.03 L 51.38,86.74 63.27,64.28 52.19,41.05 C 50.2,36.91 48.56,34.23 47.28,33.03 46,31.84 44.06,31.1 41.46,30.83 c -0.24,0 -0.46,-0.14 -0.68,-0.43 -0.22,-0.28 -0.33,-0.61 -0.33,-0.98 0,-0.95 0.23,-1.42 0.71,-1.42 2.26,0 4.33,0.1 6.22,0.3 1.82,0.21 3.76,0.31 5.82,0.31 2.02,0 4.16,-0.1 6.42,-0.31 2.33,-0.2 4.62,-0.3 6.88,-0.3 0.54,0 0.81,0.47 0.81,1.42 0,0.94 -0.16,1.41 -0.5,1.41 -4.52,0.31 -6.78,1.59 -6.78,3.85 0,1.01 0.52,2.58 1.57,4.7 l 7.33,14.88 7.29,-13.61 c 1.01,-1.92 1.52,-3.54 1.52,-4.86 0,-3.1 -2.26,-4.75 -6.78,-4.96 -0.41,0 -0.61,-0.47 -0.61,-1.41 0,-0.34 0.1,-0.66 0.3,-0.96 0.21,-0.31 0.41,-0.46 0.61,-0.46 1.62,0 3.61,0.1 5.97,0.3 2.26,0.21 4.12,0.31 5.57,0.31 1.04,0 2.58,-0.09 4.6,-0.26 2.56,-0.23 4.71,-0.35 6.43,-0.35 0.4,0 0.6,0.4 0.6,1.21 0,1.08 -0.37,1.62 -1.11,1.62 -2.63,0.27 -4.75,1 -6.35,2.18 -1.6,1.18 -3.6,3.86 -5.99,8.04 l -9.72,17.97 13.16,26.81 19.43,-45.18 c 0.67,-1.65 1.01,-3.17 1.01,-4.55 0,-3.31 -2.26,-5.06 -6.78,-5.27 -0.41,0 -0.61,-0.47 -0.61,-1.41 0,-0.95 0.3,-1.42 0.91,-1.42 1.65,0 3.61,0.1 5.87,0.3 2.09,0.21 3.85,0.31 5.26,0.31 1.49,0 3.21,-0.1 5.16,-0.31 2.03,-0.2 3.85,-0.3 5.47,-0.3 0.47,0 0.71,0.4 0.71,1.21 z"
         id="path1-4" /></g><text
       xml:space="preserve"
       style="font-style:normal;font-variant:normal;font-weight:normal;font-stretch:normal;font-size:39.7963px;font-family:'Linux Libertine Display';-inkscape-font-specification:'Linux Libertine Display, Normal';font-variant-ligatures:normal;font-variant-caps:normal;font-variant-numeric:normal;font-variant-east-asian:normal;writing-mode:lr-tb;direction:ltr;fill:#ffffff;fill-rule:evenodd;stroke-width:0.82961"
       x="92.046799"
       y="161.36024"
       id="text1"><tspan
         id="tspan1"
         style="font-style:normal;font-variant:normal;font-weight:normal;font-stretch:normal;font-size:39.7963px;font-family:'Linux Libertine Display';-inkscape-font-specification:'Linux Libertine Display, Normal';font-variant-ligatures:normal;font-variant-caps:normal;font-variant-numeric:normal;font-variant-east-asian:normal;fill:#000000;fill-opacity:1;stroke-width:0.829612"
         x="92.046799"
         y="161.36024">Φ</tspan></text></g></svg>
